<svg width="48" height="48" fill="none" xmlns="http://www.w3.org/2000/svg"><g filter="url(#a)"><circle cx="24" cy="20" r="20" fill="#fff" fill-opacity=".3"/><path d="M26.7 13.155c1.5-.5 2.6.3 3.2 1.1.5-.2 1.1-.4 1.7-.6 0 .8-.5 1.4-.8 1.6.7.2 1.2-.4 1.2-.4-.1.9-.9 1.7-1.4 1.9-.2 6.3-2.8 10.4-8.9 10.3h-.4c-.3 0-3.7-.4-4.3-1.8 2 .2 3.4-.4 4.1-1.1-.8-.3-2.4-.4-2.6-2.8.3.2.5.3 1.1.2-1.1-.8-2.3-1.5-2.2-3.5.3.3.9.5 1.2.4-.6-.2-1.8-3.1-.8-4.6 1.6 1.7 3.3 3.4 6.3 3.5.2-2.1 1-3.5 2.6-4.2Z" fill="#444"/></g><defs><filter id="a" x="0" y="0" width="48" height="48" filterUnits="userSpaceOnUse" color-interpolation-filters="sRGB"><feFlood flood-opacity="0" result="BackgroundImageFix"/><feColorMatrix in="SourceAlpha" values="0 0 0 0 0 0 0 0 0 0 0 0 0 0 0 0 0 0 127 0" result="hardAlpha"/><feOffset dy="4"/><feGaussianBlur stdDeviation="2"/><feComposite in2="hardAlpha" operator="out"/><feColorMatrix values="0 0 0 0 0 0 0 0 0 0 0 0 0 0 0 0 0 0 0.25 0"/><feBlend in2="BackgroundImageFix" result="effect1_dropShadow_26576_1318"/><feBlend in="SourceGraphic" in2="effect1_dropShadow_26576_1318" result="shape"/></filter></defs></svg>